<?xml version="1.0" standalone="no"?>
<!DOCTYPE svg PUBLIC "-//W3C//DTD SVG 20010904//EN"
 "http://www.w3.org/TR/2001/REC-SVG-20010904/DTD/svg10.dtd">
<svg version="1.0" xmlns="http://www.w3.org/2000/svg"
 width="634.000000pt" height="634.000000pt" viewBox="0 0 634.000000 634.000000"
 preserveAspectRatio="xMidYMid meet">
<metadata>
Created by potrace 1.14, written by Peter Selinger 2001-2017
</metadata>
<g transform="translate(0.000000,634.000000) scale(0.100000,-0.100000)"
fill="#000000" stroke="none">
<path d="M3205 5885 c-107 -11 -138 -20 -290 -77 -131 -49 -208 -86 -332 -159
-142 -83 -186 -116 -347 -257 -175 -154 -190 -170 -289 -310 -183 -258 -133
-108 -578 -1732 l-396 -1445 -279 -5 c-247 -4 -283 -7 -314 -24 -48 -25 -88
-64 -110 -106 -23 -45 -270 -999 -270 -1043 0 -87 62 -181 144 -218 40 -18
129 -19 2554 -19 2503 0 2514 0 2594 21 44 11 120 36 167 55 161 64 410 280
533 463 17 25 52 75 78 111 162 222 260 604 260 1010 0 165 -4 200 -45 380
-42 181 -162 441 -280 605 -36 50 -65 94 -65 99 0 4 29 49 64 100 170 244 276
588 276 896 0 278 -33 448 -142 740 -108 290 -181 408 -373 608 -98 103 -182
170 -260 209 -124 62 -114 61 -1055 83 -476 11 -923 21 -995 23 -71 3 -184 -1
-250 -8z m2155 -302 c124 -43 340 -263 441 -448 52 -94 151 -352 185 -480 30
-113 54 -301 54 -422 0 -100 -26 -258 -66 -396 -49 -168 -143 -339 -283 -518
-34 -42 -41 -59 -41 -94 0 -40 6 -51 60 -112 221 -247 363 -595 377 -918 10
-247 -57 -616 -143 -788 -44 -87 -153 -246 -237 -345 -71 -84 -253 -232 -321
-262 -26 -11 -84 -31 -129 -45 l-83 -25 -1522 0 c-1070 0 -1522 3 -1522 11 0
8 167 632 227 852 l16 57 1258 0 1258 0 64 23 c37 14 97 49 145 85 76 58 84
68 126 155 l45 92 7 151 c6 130 4 158 -11 205 -41 123 -150 247 -281 320 l-79
43 -262 4 c-158 3 -263 8 -263 14 0 5 52 197 115 427 63 230 115 425 115 433
0 12 19 16 98 21 133 7 213 40 302 123 144 136 210 284 210 468 -1 123 -29
211 -107 329 -39 59 -89 104 -161 143 -2 1 200 863 213 910 5 16 138 7 195
-13z m-1065 -1113 c571 -13 571 -13 595 -35 11 -10 33 -45 50 -78 26 -53 30
-71 30 -145 0 -110 -12 -146 -74 -229 -36 -48 -65 -75 -99 -92 l-48 -24 -527
12 c-290 6 -681 14 -870 17 -308 6 -342 9 -338 23 3 9 22 72 42 141 20 69 48
147 62 175 27 55 97 126 152 155 96 50 378 102 515 94 39 -2 268 -8 510 -14z
m586 -2012 c59 -35 132 -115 146 -161 7 -23 8 -72 3 -139 -9 -129 -28 -171
-102 -221 l-53 -37 -1218 0 c-698 0 -1217 4 -1217 9 0 14 148 560 155 572 5 7
340 9 1124 7 l1116 -3 46 -27z m-3986 -820 c-13 -37 -234 -857 -237 -878 l-3
-25 -202 -3 c-112 -1 -203 1 -203 6 0 4 52 209 115 454 63 246 115 449 115
452 0 3 94 6 210 6 163 0 208 -3 205 -12z"/>
</g>
</svg>
